<svg xmlns="http://www.w3.org/2000/svg" viewBox="0 0 900 540" role="img" aria-labelledby="title desc"><title id="title">Governed retrieval augmented generation architecture</title><desc id="desc">Enterprise sources are classified, embedded, retrieved with access filters and grounded through orchestration with evaluation.</desc><defs><marker id="a" markerWidth="10" markerHeight="10" refX="8" refY="3" orient="auto"><path d="M0 0L9 3 0 6z" fill="#2dd4bf"/></marker></defs><rect width="900" height="540" rx="28" fill="#0f2940"/><text x="54" y="66" fill="#fff" font-family="Inter,Arial" font-size="28" font-weight="700">Governed RAG Architecture</text><text x="54" y="96" fill="#99f6e4" font-family="Inter,Arial" font-size="16">Permission-aware retrieval, grounded answers and observable quality</text>
<g font-family="Inter,Arial" text-anchor="middle"><g fill="#173a54" stroke="#5eead4" stroke-width="2"><rect x="36" y="176" width="150" height="94" rx="17"/><rect x="206" y="176" width="150" height="94" rx="17"/><rect x="376" y="176" width="150" height="94" rx="17"/><rect x="546" y="176" width="150" height="94" rx="17"/><rect x="716" y="176" width="150" height="94" rx="17"/></g><g fill="#fff" font-size="16" font-weight="700"><text x="111" y="214">Governed</text><text x="111" y="238">sources</text><text x="281" y="214">Chunk +</text><text x="281" y="238">embed</text><text x="451" y="214">Access-aware</text><text x="451" y="238">retrieval</text><text x="621" y="214">Prompt</text><text x="621" y="238">orchestration</text><text x="791" y="214">Grounded</text><text x="791" y="238">answer</text></g><g stroke="#2dd4bf" stroke-width="4" marker-end="url(#a)"><path d="M186 223h12"/><path d="M356 223h12"/><path d="M526 223h12"/><path d="M696 223h12"/></g>
<rect x="120" y="354" width="660" height="92" rx="19" fill="#0b2033" stroke="#38bdf8" stroke-width="2"/><text x="450" y="389" fill="#fff" font-size="19" font-weight="700">Trust + observability layer</text><text x="450" y="419" fill="#bae6fd" font-size="15">Citations · evaluation · lineage · safety · feedback loops</text><path d="M111 290v50M281 290v50M451 290v50M621 290v50M791 290v50" stroke="#38bdf8" stroke-width="3"/></g></svg>
